<svg version="1.1" id="Layer_1" xmlns="http://www.w3.org/2000/svg" xmlns:xlink="http://www.w3.org/1999/xlink" x="0px" y="0px"
	 width="100%" viewBox="0 0 512 512" enable-background="new 0 0 512 512" xml:space="preserve">
<path fill="#000000" opacity="1.000000" stroke="none" 
	d="
M339.000000,513.000000 
	C226.027451,513.000000 113.554893,513.000000 1.041169,513.000000 
	C1.041169,342.402435 1.041169,171.804840 1.041169,1.103623 
	C171.555893,1.103623 342.111877,1.103623 512.833923,1.103623 
	C512.833923,171.666534 512.833923,342.333252 512.833923,513.000000 
	C455.138153,513.000000 397.319061,513.000000 339.000000,513.000000 
M326.554626,427.029327 
	C333.420410,431.675690 339.906952,437.061005 347.228882,440.818542 
	C363.816650,449.331207 381.662720,450.880646 399.922119,447.988312 
	C422.151672,444.467163 440.230255,433.371399 453.527924,415.602692 
	C467.075836,397.499603 473.005096,376.901215 470.166504,353.890869 
	C468.529022,340.617065 464.078400,328.534119 457.525482,317.223083 
	C447.336304,299.635498 436.473480,282.439514 426.021210,265.002625 
	C411.472534,240.731827 397.096069,216.357803 382.541260,192.090729 
	C366.807281,165.857559 350.799072,139.787674 335.214752,113.466431 
	C327.208771,99.944695 318.124908,87.661919 304.717407,78.887161 
	C285.521362,66.323959 264.655304,62.375023 242.255066,66.025238 
	C219.442200,69.742683 201.165115,80.990425 187.613937,99.812576 
	C174.544159,117.966064 169.289490,138.001862 171.880219,160.343719 
	C173.434586,173.748398 177.971436,185.865845 184.814865,197.283829 
	C195.368973,214.893021 205.988312,232.463104 216.544556,250.071014 
	C228.944458,270.754181 241.281754,291.474945 253.691238,312.152344 
	C269.286407,338.137909 284.883667,364.122406 300.566864,390.054871 
	C308.254364,402.766296 315.024506,416.137360 326.554626,427.029327 
M213.077774,348.327057 
	C212.959564,347.012482 213.015610,345.653961 212.697067,344.389862 
	C207.613907,324.217438 197.172287,307.522400 180.442963,294.940613 
	C160.209335,279.723297 137.205750,274.508270 112.811119,279.356842 
	C83.366486,285.209076 61.920876,302.301300 49.946281,330.360413 
	C42.469982,347.879089 41.053665,365.867584 45.715797,384.364624 
	C50.268177,402.426208 59.425861,417.432159 73.828430,429.471466 
	C86.804291,440.318146 101.575424,447.130219 118.136192,448.784851 
	C136.597794,450.629425 154.542938,448.137726 171.173340,438.532318 
	C185.747421,430.114563 197.174408,418.849548 204.901138,404.076172 
	C213.930496,386.812225 217.102142,368.411987 213.077774,348.327057 
z"/>
<path fill="#2962FF" opacity="1.000000" stroke="none" 
	d="
M326.295715,426.782227 
	C315.024506,416.137360 308.254364,402.766296 300.566864,390.054871 
	C284.883667,364.122406 269.286407,338.137909 253.691238,312.152344 
	C241.281754,291.474945 228.944458,270.754181 216.544556,250.071014 
	C205.988312,232.463104 195.368973,214.893021 184.814865,197.283829 
	C177.971436,185.865845 173.434586,173.748398 171.880219,160.343719 
	C169.289490,138.001862 174.544159,117.966064 187.613937,99.812576 
	C201.165115,80.990425 219.442200,69.742683 242.255066,66.025238 
	C264.655304,62.375023 285.521362,66.323959 304.717407,78.887161 
	C318.124908,87.661919 327.208771,99.944695 335.214752,113.466431 
	C350.799072,139.787674 366.807281,165.857559 382.541260,192.090729 
	C397.096069,216.357803 411.472534,240.731827 426.021210,265.002625 
	C436.473480,282.439514 447.336304,299.635498 457.525482,317.223083 
	C464.078400,328.534119 468.529022,340.617065 470.166504,353.890869 
	C473.005096,376.901215 467.075836,397.499603 453.527924,415.602692 
	C440.230255,433.371399 422.151672,444.467163 399.922119,447.988312 
	C381.662720,450.880646 363.816650,449.331207 347.228882,440.818542 
	C339.906952,437.061005 333.420410,431.675690 326.295715,426.782227 
z"/>
<path fill="#00B0FF" opacity="1.000000" stroke="none" 
	d="
M213.322327,348.694794 
	C217.102142,368.411987 213.930496,386.812225 204.901138,404.076172 
	C197.174408,418.849548 185.747421,430.114563 171.173340,438.532318 
	C154.542938,448.137726 136.597794,450.629425 118.136192,448.784851 
	C101.575424,447.130219 86.804291,440.318146 73.828430,429.471466 
	C59.425861,417.432159 50.268177,402.426208 45.715797,384.364624 
	C41.053665,365.867584 42.469982,347.879089 49.946281,330.360413 
	C61.920876,302.301300 83.366486,285.209076 112.811119,279.356842 
	C137.205750,274.508270 160.209335,279.723297 180.442963,294.940613 
	C197.172287,307.522400 207.613907,324.217438 212.697067,344.389862 
	C213.015610,345.653961 212.959564,347.012482 213.322327,348.694794 
z"/>
</svg>